<svg xmlns="http://www.w3.org/2000/svg" viewBox="0 0 512 512">
  <defs>
    <linearGradient id="g" x1="0" y1="0" x2="1" y2="1">
      <stop stop-color="#efffff"/>
      <stop offset="1" stop-color="#a8eee1"/>
    </linearGradient>
  </defs>
  <rect width="512" height="512" rx="112" fill="url(#g)"/>
  <rect x="76" y="82" width="360" height="348" rx="58" fill="#f9ffff" stroke="#13253a" stroke-width="18"/>
  <g fill="#ffffff" stroke="#13253a" stroke-width="10">
    <path d="M88 94h72v298c0 25-16 38-36 38s-36-13-36-38z"/>
    <path d="M160 94h72v298c0 25-16 38-36 38s-36-13-36-38z"/>
    <path d="M232 94h72v298c0 25-16 38-36 38s-36-13-36-38z"/>
    <path d="M304 94h72v298c0 25-16 38-36 38s-36-13-36-38z"/>
    <path d="M376 94h48v298c0 25-11 38-24 38s-24-13-24-38z"/>
  </g>
  <g fill="#17203d">
    <rect x="137" y="94" width="49" height="190" rx="18"/>
    <rect x="209" y="94" width="49" height="190" rx="18"/>
    <rect x="353" y="94" width="49" height="190" rx="18"/>
  </g>
</svg>
